<svg xmlns="http://www.w3.org/2000/svg" width="107" height="28" viewBox="0 0 107 28" fill="none"><title>Estatelab Logo</title><path d="M4.14755 24.6654C4.64783 25.1574 5.3668 25.4034 6.30447 25.4034C6.92079 25.4205 7.52693 25.2412 8.0379 24.8906C8.52063 24.5495 8.81685 24.1905 8.92656 23.8093H11.8559C11.3863 25.2853 10.668 26.3406 9.70112 26.9753C8.7342 27.61 7.56395 27.9273 6.19037 27.9273C5.31032 27.9402 4.43597 27.782 3.61435 27.4613C2.87824 27.1729 2.21426 26.7221 1.67027 26.1414C1.12748 25.5511 0.708654 24.8547 0.439314 24.0947C0.140234 23.255 -0.00839558 22.3678 0.000469834 21.4749C-0.00949921 20.5979 0.139254 19.7265 0.439314 18.9042C0.716254 18.1391 1.14512 17.44 1.69926 16.8505C2.25339 16.261 2.92095 15.7936 3.66043 15.4773C4.4563 15.1357 5.31331 14.9656 6.1772 14.9779C7.11041 14.9558 8.03497 15.1639 8.87171 15.5844C9.61573 15.972 10.261 16.5299 10.7565 17.2142C11.2574 17.9148 11.6195 18.7076 11.8229 19.5485C12.0476 20.4451 12.1299 21.3724 12.0665 22.2954H3.3291C3.37591 23.3849 3.64873 24.1749 4.14755 24.6654ZM7.90844 18.1997C7.50909 17.7537 6.90422 17.5308 6.09382 17.5308C5.63987 17.5158 5.18883 17.6097 4.77729 17.805C4.45259 17.9642 4.16527 18.1923 3.93471 18.4739C3.73428 18.7279 3.58515 19.0196 3.49586 19.3323C3.41716 19.5958 3.3664 19.8671 3.34446 20.1416H8.74005C8.58499 19.2855 8.30779 18.6352 7.90844 18.1907V18.1997Z" fill="#111928"></path><path d="M17.5379 24.5594C17.6803 24.8116 17.8759 25.0286 18.1106 25.1948C18.3564 25.3667 18.6307 25.4921 18.9203 25.5649C19.23 25.6452 19.5486 25.6849 19.8682 25.6831C20.1161 25.682 20.3633 25.6544 20.6055 25.6006C20.8521 25.5499 21.0896 25.4611 21.3098 25.3375C21.5182 25.2214 21.6982 25.0591 21.8364 24.8626C21.9864 24.6431 22.0633 24.3806 22.0558 24.1135C22.0558 23.6051 21.7238 23.2239 21.0597 22.9697C20.1538 22.6478 19.2261 22.393 18.284 22.2072C17.7998 22.0972 17.3273 21.9664 16.8665 21.8148C16.4308 21.6778 16.0169 21.4772 15.6377 21.2195C15.2838 20.9806 14.9875 20.6635 14.771 20.292C14.5404 19.8747 14.4266 19.4013 14.4419 18.923C14.4141 18.2424 14.5721 17.5672 14.8983 16.9721C15.1929 16.4734 15.6084 16.0596 16.1051 15.7704C16.6285 15.4672 17.1993 15.2576 17.7925 15.1506C18.4255 15.03 19.0683 14.9703 19.7124 14.9722C20.3533 14.9714 20.9928 15.0349 21.6214 15.1617C22.2053 15.2756 22.7647 15.4938 23.2736 15.8061C23.7599 16.1091 24.1725 16.5199 24.4805 17.0078C24.8236 17.5796 25.0205 18.2296 25.0532 18.8985H21.8825C21.8364 18.2497 21.5929 17.8082 21.1562 17.5786C20.6789 17.34 20.1521 17.2215 19.6203 17.233C19.4164 17.2335 19.2128 17.2455 19.0103 17.2687C18.8046 17.2894 18.6034 17.342 18.4134 17.4247C18.2366 17.5007 18.0801 17.6184 17.957 17.7681C17.8247 17.9408 17.7578 18.156 17.7683 18.3745C17.7645 18.5152 17.7921 18.6549 17.8491 18.7831C17.9062 18.9113 17.9911 19.0247 18.0975 19.1148C18.3502 19.3233 18.64 19.4807 18.951 19.5785C19.347 19.7085 19.7499 19.8157 20.1578 19.8996C20.6099 19.9932 21.0728 20.098 21.5402 20.2095C22.0194 20.3183 22.4926 20.453 22.9577 20.613C23.3962 20.7593 23.8105 20.972 24.1864 21.244C24.5428 21.5005 24.8388 21.834 25.0532 22.2206C25.2857 22.6629 25.3992 23.1597 25.3823 23.6609C25.414 24.3264 25.27 24.9885 24.9653 25.5785C24.6605 26.1685 24.206 26.6649 23.6489 27.0164C23.1073 27.36 22.5076 27.5981 21.8803 27.7187C21.2127 27.8536 20.5336 27.9216 19.8529 27.9216C19.1603 27.9197 18.4699 27.845 17.7925 27.6986C17.1581 27.5694 16.5511 27.3271 15.9998 26.9829C15.4765 26.6492 15.0358 26.1976 14.7118 25.663C14.3542 25.037 14.1643 24.3267 14.161 23.6029H17.3229C17.3085 23.9356 17.3828 24.2661 17.5379 24.5594Z" fill="#111928"></path><path d="M34.3592 15.3106V17.5737H31.9236V23.6671C31.9236 24.2379 32.0158 24.6191 32.2045 24.8086C32.3932 24.9982 32.7662 25.094 33.3279 25.094C33.5167 25.094 33.6944 25.094 33.8677 25.0717C34.0327 25.0567 34.1967 25.0329 34.3592 25.0004V27.6179C34.0489 27.6673 33.7361 27.6993 33.4223 27.7138C33.0778 27.7294 32.7421 27.7383 32.4152 27.7383C31.9252 27.7407 31.4359 27.7042 30.9516 27.6291C30.5232 27.5687 30.1095 27.4281 29.7316 27.2144C29.3777 27.0021 29.0895 26.6931 28.9 26.3225C28.6798 25.8558 28.5758 25.3413 28.5972 24.8243V17.5737H26.5829V15.3106H28.5972V11.6229H31.9236V15.3106H34.3592Z" fill="#111928"></path><path d="M37.5679 17.1224C37.9058 16.6048 38.3562 16.173 38.8844 15.8604C39.4407 15.5367 40.0468 15.3106 40.6771 15.1915C41.3365 15.0562 42.0076 14.9883 42.6804 14.9886C43.2991 14.9902 43.917 15.0333 44.5301 15.118C45.1233 15.1978 45.7007 15.3708 46.2416 15.6308C46.7426 15.8722 47.1768 16.2361 47.5055 16.6898C47.856 17.2192 48.0284 17.8496 47.997 18.4869V24.8902C47.9963 25.423 48.0279 25.9554 48.0913 26.4844C48.1202 26.885 48.2324 27.2748 48.4205 27.6281H45.0414C44.9789 27.4368 44.9283 27.2417 44.89 27.044C44.8498 26.8438 44.8219 26.6413 44.8066 26.4375C44.2905 26.9828 43.6453 27.3843 42.9327 27.6036C42.2217 27.8251 41.4822 27.9378 40.7385 27.938C40.1919 27.9395 39.6478 27.8645 39.1214 27.7151C38.6433 27.5828 38.1958 27.3554 37.8048 27.0462C37.4269 26.7413 37.1261 26.3492 36.9272 25.9024C36.7049 25.3848 36.597 24.8238 36.6112 24.2592C36.5888 23.6631 36.7132 23.0707 36.9732 22.5358C37.1969 22.1044 37.518 21.7331 37.9102 21.4522C38.3111 21.1741 38.7566 20.9689 39.2267 20.8457C39.7164 20.7105 40.2131 20.6026 40.7144 20.5225C41.2147 20.4444 41.7062 20.3798 42.1911 20.3329C42.6253 20.2915 43.0558 20.2169 43.4791 20.11C43.8025 20.0391 44.1067 19.8968 44.3699 19.6931C44.4804 19.595 44.5656 19.471 44.6184 19.332C44.6711 19.1929 44.6898 19.0429 44.6727 18.8949C44.6869 18.5954 44.6265 18.2971 44.4972 18.0276C44.3892 17.8209 44.2276 17.6481 44.0298 17.5281C43.8209 17.4035 43.5897 17.3224 43.3496 17.2896C43.0743 17.2481 42.7963 17.228 42.518 17.2294C41.9703 17.1979 41.4274 17.3481 40.9711 17.6575C40.5981 17.9428 40.3787 18.42 40.3128 19.0866H36.9842C37.0042 18.3909 37.2056 17.7131 37.5679 17.1224ZM44.1395 21.8937C43.917 21.9686 43.6898 22.0282 43.4593 22.072C43.218 22.1211 42.9635 22.1612 42.698 22.1924C42.4325 22.2236 42.1691 22.2638 41.9036 22.3106C41.6535 22.359 41.4066 22.423 41.1642 22.5023C40.9374 22.5729 40.7239 22.6814 40.5323 22.8234C40.3495 22.9572 40.1993 23.1319 40.0934 23.334C39.9754 23.5785 39.9189 23.8489 39.9288 24.121C39.9204 24.3844 39.977 24.6458 40.0934 24.8813C40.194 25.081 40.3456 25.2497 40.5323 25.3696C40.7344 25.4939 40.9577 25.5786 41.1905 25.6193C41.4459 25.6681 41.7052 25.692 41.9651 25.6906C42.4921 25.7201 43.0172 25.6054 43.4857 25.3584C43.8146 25.1668 44.089 24.8917 44.2822 24.5602C44.4485 24.2711 44.5566 23.9513 44.6003 23.6193C44.6334 23.3672 44.6524 23.1134 44.6574 22.8591V21.5971C44.5062 21.7304 44.3301 21.8313 44.1395 21.8937Z" fill="#111928"></path><path d="M57.9224 15.3106V17.5737H55.4846V23.6671C55.4846 24.2379 55.5789 24.6184 55.7676 24.8086C55.9542 25.0004 56.3294 25.094 56.8911 25.094C57.0776 25.094 57.2575 25.094 57.4309 25.0717C57.5958 25.0567 57.7599 25.0329 57.9224 25.0004V27.6179C57.612 27.6673 57.2992 27.6993 56.9854 27.7138C56.6409 27.7294 56.3052 27.7383 55.9783 27.7383C55.4884 27.7407 54.999 27.7042 54.5147 27.6291C54.0862 27.5691 53.6725 27.4284 53.2947 27.2144C52.9408 27.0021 52.6527 26.6931 52.4631 26.3225C52.2421 25.8561 52.1374 25.3415 52.1581 24.8243V17.5737H50.1438V15.3106H52.1581V11.6229H55.4846V15.3106H57.9224Z" fill="#111928"></path><path d="M63.7764 24.6654C64.2767 25.1574 64.9949 25.4034 65.9311 25.4034C66.5475 25.421 67.1538 25.2416 67.6646 24.8906C68.1495 24.5495 68.4457 24.1905 68.5554 23.8093H71.4891C71.0225 25.2853 70.3042 26.3406 69.3344 26.9753C68.3645 27.61 67.1943 27.9273 65.8236 27.9273C64.9429 27.9402 64.0678 27.782 63.2454 27.4613C62.5096 27.1723 61.8457 26.7215 61.3013 26.1414C60.7585 25.5516 60.3403 24.855 60.0726 24.0947C59.7735 23.255 59.6248 22.3678 59.6337 21.4749C59.6248 20.598 59.7735 19.7268 60.0726 18.9042C60.3521 18.1382 60.7821 17.438 61.3364 16.8463C61.8924 16.2618 62.5579 15.7964 63.2937 15.4773C64.0903 15.1357 64.948 14.9656 65.8126 14.9779C66.7459 14.9558 67.6704 15.1639 68.5071 15.5844C69.2508 15.9726 69.8959 16.5304 70.392 17.2142C70.8917 17.9155 71.2538 18.708 71.4584 19.5485C71.6798 20.4457 71.7598 21.3728 71.6954 22.2954H62.9558C63.004 23.3849 63.2776 24.1749 63.7764 24.6654ZM67.5351 18.1997C67.1372 17.7537 66.5324 17.5308 65.7205 17.5308C65.2665 17.5157 64.8155 17.6097 64.404 17.805C64.079 17.9647 63.791 18.1927 63.5592 18.4739C63.3586 18.7278 63.2095 19.0195 63.1203 19.3323C63.04 19.5955 62.9884 19.8669 62.9667 20.1416H68.3777C68.2139 19.2855 67.9345 18.6352 67.5395 18.1907L67.5351 18.1997Z" fill="#111928"></path><path d="M77.7948 10.6193V27.6153H74.4683V10.6193H77.7948Z" fill="#111928"></path><path d="M81.5617 17.1224C81.8996 16.6048 82.35 16.173 82.8782 15.8604C83.4345 15.5367 84.0406 15.3106 84.6709 15.1915C85.3303 15.0562 86.0014 14.9883 86.6742 14.9886C87.2929 14.9902 87.9108 15.0333 88.5239 15.118C89.1163 15.1981 89.693 15.3711 90.2332 15.6308C90.7344 15.8728 91.1692 16.2365 91.4993 16.6898C91.8488 17.2197 92.0211 17.8498 91.9908 18.4869V24.8902C91.989 25.4231 92.0206 25.9555 92.0852 26.4844C92.1145 26.8846 92.2258 27.2742 92.4121 27.6281H89.0352C88.9717 27.4372 88.9211 27.242 88.8838 27.044C88.8425 26.844 88.8146 26.6414 88.8004 26.4375C88.2843 26.9828 87.6391 27.3843 86.9265 27.6036C86.2155 27.8249 85.476 27.9376 84.7323 27.938C84.1865 27.9395 83.643 27.8644 83.1174 27.7151C82.6393 27.5828 82.1918 27.3554 81.8008 27.0462C81.4223 26.7419 81.1213 26.3496 80.9231 25.9024C80.6991 25.3853 80.5905 24.8241 80.605 24.2592C80.5826 23.6628 80.7078 23.0703 80.9692 22.5358C81.1922 22.104 81.5134 21.7325 81.9062 21.4522C82.3067 21.1733 82.7523 20.968 83.2227 20.8457C83.7124 20.7105 84.209 20.6026 84.7104 20.5225C85.2085 20.4444 85.7 20.3798 86.1849 20.3329C86.6191 20.2916 87.0497 20.2171 87.4729 20.11C87.7964 20.0391 88.1005 19.8968 88.3638 19.6931C88.4749 19.5954 88.5607 19.4716 88.6139 19.3325C88.6671 19.1934 88.6859 19.0431 88.6688 18.8949C88.6822 18.5954 88.6218 18.2973 88.4932 18.0276C88.3844 17.8207 88.2221 17.648 88.0237 17.5281C87.8154 17.4039 87.5849 17.3228 87.3456 17.2896C87.0703 17.2482 86.7923 17.2281 86.514 17.2294C85.97 17.2003 85.4314 17.3505 84.9781 17.6575C84.6021 17.9428 84.3827 18.4192 84.3198 19.0866H80.9758C80.9965 18.3907 81.1986 17.7128 81.5617 17.1224ZM88.1443 21.8937C87.9217 21.9683 87.6945 22.0279 87.4641 22.072C87.2228 22.1211 86.9682 22.1612 86.7027 22.1924C86.4372 22.2236 86.1717 22.2638 85.9062 22.3106C85.6568 22.3587 85.4105 22.4228 85.169 22.5023C84.9418 22.572 84.7281 22.6805 84.537 22.8234C84.355 22.958 84.205 23.1325 84.0982 23.334C83.9802 23.5785 83.9236 23.8489 83.9336 24.121C83.9252 24.3844 83.9817 24.6458 84.0982 24.8813C84.1991 25.0809 84.3506 25.2494 84.537 25.3696C84.739 25.4943 84.9623 25.579 85.1953 25.6193C85.4499 25.668 85.7086 25.6919 85.9677 25.6906C86.4954 25.7201 87.0212 25.6054 87.4905 25.3584C87.8194 25.1668 88.0938 24.8917 88.287 24.5602C88.4526 24.271 88.56 23.9511 88.6029 23.6193C88.6376 23.3673 88.6574 23.1135 88.6622 22.8591V21.5971C88.5077 21.7317 88.3278 21.8326 88.1334 21.8937H88.1443Z" fill="#111928"></path><path d="M98.1221 10.6193V16.8086H98.1682C98.5642 16.1819 99.1414 15.6951 99.8205 15.4151C100.507 15.1218 101.244 14.9702 101.988 14.9692C102.631 14.9725 103.266 15.1119 103.853 15.3783C104.439 15.6447 104.965 16.0323 105.396 16.5165C105.908 17.1017 106.302 17.7835 106.555 18.5231C107.148 20.4197 107.148 22.4569 106.555 24.3535C106.302 25.0932 105.908 25.775 105.396 26.3601C104.967 26.847 104.443 27.2376 103.857 27.5071C103.271 27.7766 102.636 27.919 101.993 27.9252C101.176 27.9392 100.364 27.7931 99.601 27.4949C98.9141 27.2248 98.3482 26.7085 98.0102 26.0435H97.962V27.6153H94.7957V10.6193H98.1221ZM103.511 19.9835C103.412 19.5357 103.238 19.1087 102.996 18.7215C102.772 18.3678 102.472 18.0704 102.118 17.852C101.728 17.6388 101.293 17.5257 100.851 17.5226C100.408 17.5195 99.9716 17.6265 99.5791 17.8342C99.2199 18.0501 98.915 18.3477 98.6883 18.7037C98.4449 19.0904 98.2703 19.5175 98.1726 19.9656C98.062 20.4571 98.0075 20.9598 98.0102 21.4639C98.0082 21.9606 98.0627 22.4559 98.1726 22.9399C98.2699 23.3881 98.4445 23.8154 98.6883 24.2018C98.9138 24.5588 99.219 24.8567 99.5791 25.0714C99.9704 25.2822 100.407 25.3925 100.85 25.3925C101.292 25.3925 101.729 25.2822 102.12 25.0714C102.475 24.8542 102.775 24.5566 102.998 24.2018C103.241 23.8149 103.415 23.3878 103.513 22.9399C103.622 22.4557 103.677 21.9606 103.676 21.4639C103.676 20.9628 103.621 20.4632 103.511 19.9746V19.9835Z" fill="#111928"></path><path d="M73.0348 0H57.4558V10.2561H66.7351L70.6211 14.2024V10.2561H73.0348V0Z" fill="url(#_r_s_)"></path><path d="M62.3011 5.07648C62.3015 5.27281 62.2446 5.46485 62.1376 5.6283C62.0306 5.79176 61.8782 5.91927 61.6999 5.9947C61.5215 6.07014 61.3251 6.09011 61.1355 6.05208C60.946 6.01405 60.7718 5.91973 60.635 5.78106C60.4983 5.64239 60.405 5.46561 60.3672 5.27309C60.3293 5.08057 60.3485 4.88097 60.4224 4.69955C60.4962 4.51812 60.6214 4.36303 60.782 4.25392C60.9426 4.1448 61.1315 4.08655 61.3247 4.08655C61.5833 4.08655 61.8313 4.19077 62.0143 4.37636C62.1974 4.56194 62.3005 4.81373 62.3011 5.07648Z" fill="white"></path><path d="M66.2009 5.07648C66.2013 5.2729 66.1444 5.46503 66.0372 5.62854C65.9301 5.79204 65.7776 5.91955 65.5991 5.99492C65.4206 6.07029 65.2241 6.09013 65.0345 6.05192C64.8449 6.0137 64.6707 5.91916 64.534 5.78027C64.3973 5.64138 64.3043 5.46439 64.2667 5.27173C64.2291 5.07906 64.2486 4.87938 64.3228 4.698C64.3969 4.51661 64.5224 4.36168 64.6833 4.25283C64.8442 4.14398 65.0333 4.08611 65.2266 4.08655C65.485 4.08655 65.7328 4.19085 65.9155 4.37649C66.0982 4.56214 66.2009 4.81394 66.2009 5.07648Z" fill="white"></path><path d="M70.1089 5.0766C70.1093 5.27302 70.0524 5.46516 69.9452 5.62866C69.8381 5.79216 69.6856 5.91968 69.5071 5.99505C69.3286 6.07042 69.1321 6.09025 68.9425 6.05204C68.7529 6.01383 68.5787 5.91929 68.442 5.7804C68.3053 5.64151 68.2122 5.46452 68.1746 5.27185C68.137 5.07918 68.1565 4.8795 68.2307 4.69812C68.3049 4.51673 68.4304 4.3618 68.5913 4.25295C68.7522 4.1441 68.9413 4.08623 69.1346 4.08667C69.2626 4.08667 69.3892 4.11228 69.5074 4.16203C69.6256 4.21178 69.7331 4.28469 69.8235 4.37662C69.914 4.46854 69.9858 4.57767 70.0347 4.69777C70.0837 4.81788 70.1089 4.9466 70.1089 5.0766Z" fill="white"></path><defs><linearGradient id="_r_s_" x1="73.0343" y1="0.749371" x2="56.1263" y2="2.70439" gradientUnits="userSpaceOnUse"><stop stop-color="#A635FF"></stop><stop offset="1" stop-color="#6A35FF"></stop></linearGradient></defs></svg>